<svg width="167" height="46" viewBox="0 0 167 46" fill="none" xmlns="http://www.w3.org/2000/svg">
<g id="Frame">
<g id="netflix-logo">
<path id="Fill-14" d="M157.844 21.9209L166.749 45.5C164.124 45.1246 161.5 44.655 158.828 44.2332L153.811 31.203L148.656 43.1563C146.125 42.7345 143.639 42.5925 141.109 42.2649L150.156 21.6398L141.952 0.5H149.547L154.14 12.3113L159.062 0.5H166.749L157.844 21.9209ZM135.953 0.5H129.062V41.375C131.312 41.5156 133.656 41.6084 135.953 41.8895V0.5ZM123.108 40.9054C116.828 40.4836 110.546 40.1096 104.125 39.9676V0.5H111.155V33.3119C115.187 33.4061 119.218 33.7337 123.108 33.9207V40.9054ZM96.6245 16.4842V23.5153H87.0163V39.4994H80.078V0.5H99.7654V7.53112H87.0163V16.4842H96.6245ZM68.2653 7.53112V39.8748C65.9216 39.8748 63.5315 39.8748 61.2342 39.9676V7.53112H53.9682V0.5H75.5776V7.53112H68.2653ZM46.3748 23.8893C43.2817 23.8893 39.6248 23.8893 36.9999 24.0313V34.4844C41.125 34.2018 45.25 33.8743 49.4214 33.7337V40.4836L29.9688 42.0315V0.5H49.4214V7.53112H36.9999V16.9987C39.719 16.9987 43.8905 16.8581 46.3748 16.8581V23.8893ZM7.42171 19.9526V44.5144C4.89102 44.797 2.6401 45.1246 0.25 45.5V0.5H6.95353L16.0936 26.0474V0.5H23.1247V42.5925C20.6404 43.0157 18.1097 43.1563 15.437 43.5303L7.42171 19.9526Z" fill="#E50914"/>
</g>
</g>
</svg>
